<?xml version="1.0" encoding="UTF-8"?>
<svg xmlns="http://www.w3.org/2000/svg" xmlns:xlink="http://www.w3.org/1999/xlink" width="144px" height="144px" viewBox="0 0 144 144" version="1.1">
<g id="surface52510">
<path style=" stroke:none;fill-rule:nonzero;fill:rgb(100%,93.333333%,34.509804%);fill-opacity:1;" d="M 72 12 C 38.863281 12 12 38.863281 12 72 C 12 105.136719 38.863281 132 72 132 C 105.136719 132 132 105.136719 132 72 C 132 38.863281 105.136719 12 72 12 Z M 72 12 "/>
<path style=" stroke:none;fill-rule:nonzero;fill:rgb(100%,100%,100%);fill-opacity:1;" d="M 72.492188 111 C 72.289062 111 72.09375 110.992188 71.894531 110.984375 C 71.769531 110.992188 71.640625 111 71.503906 111 C 66.886719 111 63.917969 108.851562 61.050781 106.777344 C 59.070312 105.34375 57.199219 103.988281 55 103.613281 C 53.925781 103.429688 52.855469 103.339844 51.820312 103.339844 C 49.960938 103.339844 48.492188 103.636719 47.417969 103.847656 C 46.765625 103.980469 46.203125 104.089844 45.777344 104.089844 C 45.328125 104.089844 44.847656 103.992188 44.636719 103.257812 C 44.453125 102.621094 44.320312 102.003906 44.195312 101.40625 C 43.867188 99.871094 43.636719 98.921875 43.007812 98.824219 C 35.679688 97.664062 33.582031 96.085938 33.113281 94.960938 C 33.046875 94.804688 33.007812 94.640625 33 94.480469 C 32.976562 94.054688 33.277344 93.667969 33.691406 93.601562 C 44.953125 91.699219 50.007812 79.902344 50.21875 79.402344 C 50.226562 79.386719 50.230469 79.375 50.238281 79.359375 C 50.929688 77.929688 51.0625 76.683594 50.640625 75.664062 C 49.867188 73.800781 47.632812 73.007812 45.964844 72.46875 C 45.558594 72.335938 45.171875 72.210938 44.863281 72.085938 C 41.535156 70.738281 41.257812 69.355469 41.386719 68.644531 C 41.609375 67.441406 43.179688 66.605469 44.449219 66.605469 C 44.796875 66.605469 45.101562 66.667969 45.359375 66.792969 C 46.855469 67.511719 47.917969 67.84375 49.082031 67.84375 C 50.695312 67.84375 51.394531 67.152344 51.480469 67.058594 C 51.4375 66.277344 51.386719 65.464844 51.335938 64.621094 C 51 59.164062 50.582031 52.382812 52.269531 48.511719 C 57.316406 36.910156 68.03125 36.011719 71.191406 36.011719 C 71.273438 36.011719 72.578125 35.996094 72.578125 35.996094 L 72.769531 35.996094 C 75.9375 35.996094 86.671875 36.898438 91.726562 48.507812 C 93.410156 52.378906 92.992188 59.164062 92.65625 64.617188 L 92.644531 64.855469 C 92.597656 65.613281 92.550781 66.351562 92.515625 67.054688 C 92.59375 67.140625 93.238281 67.777344 94.699219 67.835938 L 94.703125 67.835938 C 95.8125 67.789062 96.835938 67.507812 98.234375 66.835938 C 98.644531 66.640625 99.097656 66.601562 99.410156 66.601562 C 99.886719 66.601562 100.363281 66.691406 100.765625 66.863281 L 100.789062 66.875 C 101.917969 67.285156 102.660156 68.101562 102.675781 68.949219 C 102.691406 69.746094 102.09375 70.949219 99.171875 72.132812 C 98.867188 72.253906 98.480469 72.382812 98.070312 72.511719 C 96.398438 73.054688 94.132812 73.796875 93.355469 75.664062 C 92.933594 76.683594 93.070312 77.921875 93.757812 79.355469 C 93.765625 79.371094 93.769531 79.382812 93.777344 79.398438 C 93.988281 79.898438 99.035156 91.691406 110.308594 93.59375 C 110.722656 93.664062 111.019531 94.042969 110.996094 94.476562 C 110.988281 94.636719 110.949219 94.800781 110.882812 94.960938 C 110.417969 96.070312 108.320312 97.652344 100.992188 98.8125 C 100.390625 98.90625 100.160156 99.707031 99.804688 101.386719 C 99.675781 101.992188 99.542969 102.59375 99.359375 103.222656 C 99.203125 103.769531 98.871094 104.027344 98.308594 104.027344 L 98.21875 104.027344 C 97.832031 104.027344 97.277344 103.957031 96.578125 103.816406 C 95.335938 103.566406 93.949219 103.339844 92.175781 103.339844 C 91.144531 103.339844 90.070312 103.429688 88.996094 103.609375 C 86.800781 103.984375 84.929688 105.339844 82.957031 106.769531 C 80.078125 108.851562 77.113281 111 72.492188 111 Z M 72.492188 111 "/>
</g>
</svg>
